<mxfile host="app.diagrams.net" modified="2024-01-24T07:59:07.775Z" agent="Mozilla/5.0 (Windows NT 10.0; Win64; x64) AppleWebKit/537.36 (KHTML, like Gecko) Chrome/120.0.0.0 Safari/537.36" etag="KU5e8aA7NuBAlsoJC0RL" version="22.1.20" type="device">
  <diagram name="PÃ¡gina-1" id="0PgRM66mUUV5LV1Y5fYU">
    <mxGraphModel dx="1112" dy="1268" grid="0" gridSize="10" guides="1" tooltips="1" connect="1" arrows="1" fold="1" page="0" pageScale="1" pageWidth="827" pageHeight="1169" math="0" shadow="0">
      <root>
        <mxCell id="0" />
        <mxCell id="1" parent="0" />
        <mxCell id="H2oCX1Bzr-kG6ntU79wa-13" style="edgeStyle=none;curved=1;rounded=0;orthogonalLoop=1;jettySize=auto;html=1;entryX=0;entryY=0.5;entryDx=0;entryDy=0;fontSize=12;startSize=8;endSize=8;" edge="1" parent="1" source="H2oCX1Bzr-kG6ntU79wa-1" target="H2oCX1Bzr-kG6ntU79wa-2">
          <mxGeometry relative="1" as="geometry" />
        </mxCell>
        <mxCell id="H2oCX1Bzr-kG6ntU79wa-14" style="edgeStyle=none;curved=1;rounded=0;orthogonalLoop=1;jettySize=auto;html=1;entryX=0;entryY=0.5;entryDx=0;entryDy=0;fontSize=12;startSize=8;endSize=8;" edge="1" parent="1" source="H2oCX1Bzr-kG6ntU79wa-1" target="H2oCX1Bzr-kG6ntU79wa-3">
          <mxGeometry relative="1" as="geometry" />
        </mxCell>
        <mxCell id="H2oCX1Bzr-kG6ntU79wa-15" style="edgeStyle=none;curved=1;rounded=0;orthogonalLoop=1;jettySize=auto;html=1;entryX=0;entryY=0.5;entryDx=0;entryDy=0;fontSize=12;startSize=8;endSize=8;" edge="1" parent="1" source="H2oCX1Bzr-kG6ntU79wa-1" target="H2oCX1Bzr-kG6ntU79wa-4">
          <mxGeometry relative="1" as="geometry" />
        </mxCell>
        <mxCell id="H2oCX1Bzr-kG6ntU79wa-16" style="edgeStyle=none;curved=1;rounded=0;orthogonalLoop=1;jettySize=auto;html=1;entryX=0;entryY=0.5;entryDx=0;entryDy=0;fontSize=12;startSize=8;endSize=8;" edge="1" parent="1" source="H2oCX1Bzr-kG6ntU79wa-1" target="H2oCX1Bzr-kG6ntU79wa-5">
          <mxGeometry relative="1" as="geometry" />
        </mxCell>
        <mxCell id="H2oCX1Bzr-kG6ntU79wa-1" value="Director" style="shape=umlActor;verticalLabelPosition=bottom;verticalAlign=top;html=1;outlineConnect=0;fontSize=16;" vertex="1" parent="1">
          <mxGeometry x="-163" y="53" width="30" height="60" as="geometry" />
        </mxCell>
        <mxCell id="H2oCX1Bzr-kG6ntU79wa-2" value="dar alta" style="ellipse;whiteSpace=wrap;html=1;fontSize=16;" vertex="1" parent="1">
          <mxGeometry x="159" y="-103" width="104" height="56" as="geometry" />
        </mxCell>
        <mxCell id="H2oCX1Bzr-kG6ntU79wa-3" value="dar baja" style="ellipse;whiteSpace=wrap;html=1;fontSize=16;" vertex="1" parent="1">
          <mxGeometry x="159" y="12" width="104" height="56" as="geometry" />
        </mxCell>
        <mxCell id="H2oCX1Bzr-kG6ntU79wa-4" value="consultar empleado" style="ellipse;whiteSpace=wrap;html=1;fontSize=16;" vertex="1" parent="1">
          <mxGeometry x="159" y="127" width="104" height="56" as="geometry" />
        </mxCell>
        <mxCell id="H2oCX1Bzr-kG6ntU79wa-5" value="modificar empleado" style="ellipse;whiteSpace=wrap;html=1;fontSize=16;" vertex="1" parent="1">
          <mxGeometry x="159" y="239" width="104" height="56" as="geometry" />
        </mxCell>
        <mxCell id="H2oCX1Bzr-kG6ntU79wa-11" value="eliminar del sistema" style="ellipse;whiteSpace=wrap;html=1;fontSize=16;" vertex="1" parent="1">
          <mxGeometry x="361" y="201" width="104" height="56" as="geometry" />
        </mxCell>
        <mxCell id="H2oCX1Bzr-kG6ntU79wa-12" value="consultar detalle" style="ellipse;whiteSpace=wrap;html=1;fontSize=16;" vertex="1" parent="1">
          <mxGeometry x="361" y="-40" width="104" height="56" as="geometry" />
        </mxCell>
        <mxCell id="H2oCX1Bzr-kG6ntU79wa-19" value="&amp;lt;&amp;lt;include&amp;gt;&amp;gt;" style="html=1;verticalAlign=bottom;labelBackgroundColor=none;endArrow=open;endFill=0;dashed=1;rounded=0;fontSize=12;startSize=8;endSize=8;curved=1;entryX=0;entryY=0.5;entryDx=0;entryDy=0;" edge="1" parent="1" target="H2oCX1Bzr-kG6ntU79wa-11">
          <mxGeometry width="160" relative="1" as="geometry">
            <mxPoint x="263" y="154.5" as="sourcePoint" />
            <mxPoint x="423" y="154.5" as="targetPoint" />
          </mxGeometry>
        </mxCell>
        <mxCell id="H2oCX1Bzr-kG6ntU79wa-20" value="&amp;lt;&amp;lt;include&amp;gt;&amp;gt;" style="html=1;verticalAlign=bottom;labelBackgroundColor=none;endArrow=open;endFill=0;dashed=1;rounded=0;fontSize=12;startSize=8;endSize=8;curved=1;entryX=0;entryY=0.679;entryDx=0;entryDy=0;entryPerimeter=0;" edge="1" parent="1" target="H2oCX1Bzr-kG6ntU79wa-11">
          <mxGeometry width="160" relative="1" as="geometry">
            <mxPoint x="263" y="267" as="sourcePoint" />
            <mxPoint x="361" y="341.5" as="targetPoint" />
          </mxGeometry>
        </mxCell>
        <mxCell id="H2oCX1Bzr-kG6ntU79wa-21" value="&amp;lt;&amp;lt;include&amp;gt;&amp;gt;" style="html=1;verticalAlign=bottom;labelBackgroundColor=none;endArrow=open;endFill=0;dashed=1;rounded=0;fontSize=12;startSize=8;endSize=8;curved=1;entryX=0.5;entryY=0;entryDx=0;entryDy=0;" edge="1" parent="1" target="H2oCX1Bzr-kG6ntU79wa-4">
          <mxGeometry width="160" relative="1" as="geometry">
            <mxPoint x="209" y="68" as="sourcePoint" />
            <mxPoint x="307" y="142.5" as="targetPoint" />
          </mxGeometry>
        </mxCell>
        <mxCell id="H2oCX1Bzr-kG6ntU79wa-22" value="&amp;lt;&amp;lt;extend&amp;gt;&amp;gt;" style="html=1;verticalAlign=bottom;labelBackgroundColor=none;endArrow=open;endFill=0;dashed=1;rounded=0;fontSize=12;startSize=8;endSize=8;curved=1;entryX=1;entryY=0.5;entryDx=0;entryDy=0;" edge="1" parent="1" target="H2oCX1Bzr-kG6ntU79wa-2">
          <mxGeometry y="-30" width="160" relative="1" as="geometry">
            <mxPoint x="361" y="-9" as="sourcePoint" />
            <mxPoint x="191" y="-25" as="targetPoint" />
            <mxPoint as="offset" />
          </mxGeometry>
        </mxCell>
      </root>
    </mxGraphModel>
  </diagram>
</mxfile>
